<svg width="24" height="24" viewBox="0 0 24 24" fill="none" xmlns="http://www.w3.org/2000/svg">
<g id="eye">
<path id="Vector" d="M12.0012 3.99805C9.04217 3.99805 6.54917 5.45204 4.50117 7.84203C3.80017 8.65903 3.18716 9.53204 2.68816 10.404C2.38716 10.932 2.20316 11.34 2.09516 11.592C1.98716 11.843 1.98716 12.153 2.09516 12.404C2.20316 12.656 2.38716 13.064 2.68816 13.592C3.18716 14.464 3.80017 15.337 4.50117 16.154C6.54917 18.544 9.04217 19.998 12.0012 19.998C14.9602 19.998 17.4532 18.544 19.5012 16.154C20.2012 15.337 20.8152 14.464 21.3132 13.592C21.6152 13.064 21.7992 12.656 21.9072 12.404C22.0152 12.153 22.0152 11.843 21.9072 11.592C21.7992 11.34 21.6152 10.932 21.3132 10.404C20.8152 9.53204 20.2012 8.65903 19.5012 7.84203C17.4532 5.45204 14.9602 3.99805 12.0012 3.99805ZM12.0012 5.99804C14.2922 5.99804 16.2992 7.16905 18.0012 9.15404C18.6132 9.86804 19.1242 10.636 19.5632 11.404C19.7182 11.675 19.7852 11.815 19.8762 11.998C19.7852 12.181 19.7182 12.321 19.5632 12.592C19.1242 13.36 18.6132 14.128 18.0012 14.842C16.2992 16.827 14.2922 17.998 12.0012 17.998C9.71017 17.998 7.70317 16.827 6.00117 14.842C5.38917 14.128 4.87817 13.36 4.43816 12.592C4.28416 12.321 4.21717 12.181 4.12617 11.998C4.21717 11.815 4.28416 11.675 4.43816 11.404C4.87817 10.636 5.38917 9.86804 6.00117 9.15404C7.70317 7.16905 9.71017 5.99804 12.0012 5.99804ZM12.0012 7.99804C9.79217 7.99804 8.00117 9.78904 8.00117 11.998C8.00117 14.207 9.79217 15.998 12.0012 15.998C14.2102 15.998 16.0012 14.207 16.0012 11.998C16.0012 11.446 15.5532 10.998 15.0012 10.998C14.4492 10.998 14.0012 11.446 14.0012 11.998C14.0012 13.103 13.1052 13.998 12.0012 13.998C10.8962 13.998 10.0012 13.103 10.0012 11.998C10.0012 10.893 10.8962 9.99804 12.0012 9.99804C12.2462 9.99804 12.4972 10.039 12.7202 10.123C13.2362 10.318 13.8062 10.046 14.0012 9.52904C14.1962 9.01304 13.9242 8.44304 13.4072 8.24804C12.9592 8.07904 12.4882 7.99804 12.0012 7.99804Z" fill="#070625"/>
</g>
</svg>
