<svg width="248" height="49" viewBox="0 0 248 49" fill="none" xmlns="http://www.w3.org/2000/svg">
<rect x="8" y="40.5" width="32" height="32" rx="4" transform="rotate(-90 8 40.5)" fill="#743CFF"/>
<path d="M31.2002 24.4998L20.4002 30.7352L20.4002 18.2644L31.2002 24.4998Z" fill="#FFFFFE"/>
<path d="M59.368 32.788C58.136 32.788 57.048 32.58 56.104 32.164C55.16 31.732 54.416 31.124 53.872 30.34C53.328 29.54 53.048 28.572 53.032 27.436H56.272C56.304 28.22 56.584 28.884 57.112 29.428C57.656 29.956 58.4 30.22 59.344 30.22C60.16 30.22 60.808 30.028 61.288 29.644C61.768 29.244 62.008 28.716 62.008 28.06C62.008 27.372 61.792 26.836 61.36 26.452C60.944 26.068 60.384 25.756 59.68 25.516C58.976 25.276 58.224 25.02 57.424 24.748C56.128 24.3 55.136 23.724 54.448 23.02C53.776 22.316 53.44 21.38 53.44 20.212C53.424 19.22 53.656 18.372 54.136 17.668C54.632 16.948 55.304 16.396 56.152 16.012C57 15.612 57.976 15.412 59.08 15.412C60.2 15.412 61.184 15.612 62.032 16.012C62.896 16.412 63.568 16.972 64.048 17.692C64.544 18.412 64.808 19.268 64.84 20.26H61.552C61.536 19.668 61.304 19.148 60.856 18.7C60.424 18.236 59.816 18.004 59.032 18.004C58.36 17.988 57.792 18.156 57.328 18.508C56.88 18.844 56.656 19.34 56.656 19.996C56.656 20.556 56.832 21.004 57.184 21.34C57.536 21.66 58.016 21.932 58.624 22.156C59.232 22.38 59.928 22.62 60.712 22.876C61.544 23.164 62.304 23.5 62.992 23.884C63.68 24.268 64.232 24.78 64.648 25.42C65.064 26.044 65.272 26.852 65.272 27.844C65.272 28.724 65.048 29.54 64.6 30.292C64.152 31.044 63.488 31.652 62.608 32.116C61.728 32.564 60.648 32.788 59.368 32.788ZM67.8803 32.5V15.22H70.9523V22.42C71.3523 21.764 71.8883 21.252 72.5603 20.884C73.2483 20.5 74.0323 20.308 74.9123 20.308C76.3843 20.308 77.5203 20.772 78.3203 21.7C79.1363 22.628 79.5443 23.988 79.5443 25.78V32.5H76.4963V26.068C76.4963 25.044 76.2883 24.26 75.8723 23.716C75.4723 23.172 74.8323 22.9 73.9523 22.9C73.0883 22.9 72.3683 23.204 71.7923 23.812C71.2323 24.42 70.9523 25.268 70.9523 26.356V32.5H67.8803ZM86.5859 32.788C85.5619 32.788 84.7219 32.628 84.0659 32.308C83.4099 31.972 82.9219 31.532 82.6019 30.988C82.2819 30.444 82.1219 29.844 82.1219 29.188C82.1219 28.084 82.5539 27.188 83.4179 26.5C84.2819 25.812 85.5779 25.468 87.3059 25.468H90.3299V25.18C90.3299 24.364 90.0979 23.764 89.6339 23.38C89.1699 22.996 88.5939 22.804 87.9059 22.804C87.2819 22.804 86.7379 22.956 86.2739 23.26C85.8099 23.548 85.5219 23.98 85.4099 24.556H82.4099C82.4899 23.692 82.7779 22.94 83.2739 22.3C83.7859 21.66 84.4419 21.172 85.2419 20.836C86.0419 20.484 86.9379 20.308 87.9299 20.308C89.6259 20.308 90.9619 20.732 91.9379 21.58C92.9139 22.428 93.4019 23.628 93.4019 25.18V32.5H90.7859L90.4979 30.58C90.1459 31.22 89.6499 31.748 89.0099 32.164C88.3859 32.58 87.5779 32.788 86.5859 32.788ZM87.2819 30.388C88.1619 30.388 88.8419 30.1 89.3219 29.524C89.8179 28.948 90.1299 28.236 90.2579 27.388H87.6419C86.8259 27.388 86.2419 27.54 85.8899 27.844C85.5379 28.132 85.3619 28.492 85.3619 28.924C85.3619 29.388 85.5379 29.748 85.8899 30.004C86.2419 30.26 86.7059 30.388 87.2819 30.388ZM96.3334 32.5V20.596H99.0694L99.3574 22.828C99.7894 22.06 100.373 21.452 101.109 21.004C101.861 20.54 102.741 20.308 103.749 20.308V23.548H102.885C102.213 23.548 101.613 23.652 101.085 23.86C100.557 24.068 100.141 24.428 99.8374 24.94C99.5494 25.452 99.4054 26.164 99.4054 27.076V32.5H96.3334ZM111.422 32.788C110.222 32.788 109.158 32.532 108.23 32.02C107.302 31.508 106.574 30.788 106.046 29.86C105.518 28.932 105.254 27.86 105.254 26.644C105.254 25.412 105.51 24.316 106.022 23.356C106.55 22.396 107.27 21.652 108.182 21.124C109.11 20.58 110.198 20.308 111.446 20.308C112.614 20.308 113.646 20.564 114.542 21.076C115.438 21.588 116.134 22.292 116.63 23.188C117.142 24.068 117.398 25.052 117.398 26.14C117.398 26.316 117.39 26.5 117.374 26.692C117.374 26.884 117.366 27.084 117.35 27.292H108.302C108.366 28.22 108.686 28.948 109.262 29.476C109.854 30.004 110.566 30.268 111.398 30.268C112.022 30.268 112.542 30.132 112.958 29.86C113.39 29.572 113.71 29.204 113.918 28.756H117.038C116.814 29.508 116.438 30.196 115.91 30.82C115.398 31.428 114.758 31.908 113.99 32.26C113.238 32.612 112.382 32.788 111.422 32.788ZM111.446 22.804C110.694 22.804 110.03 23.02 109.454 23.452C108.878 23.868 108.51 24.508 108.35 25.372H114.278C114.23 24.588 113.942 23.964 113.414 23.5C112.886 23.036 112.23 22.804 111.446 22.804ZM119.982 32.5V20.596H122.694L122.958 22.204C123.342 21.628 123.846 21.172 124.47 20.836C125.11 20.484 125.846 20.308 126.678 20.308C128.518 20.308 129.822 21.02 130.59 22.444C131.022 21.788 131.598 21.268 132.318 20.884C133.054 20.5 133.854 20.308 134.718 20.308C136.27 20.308 137.462 20.772 138.294 21.7C139.126 22.628 139.542 23.988 139.542 25.78V32.5H136.47V26.068C136.47 25.044 136.27 24.26 135.87 23.716C135.486 23.172 134.886 22.9 134.07 22.9C133.238 22.9 132.566 23.204 132.054 23.812C131.558 24.42 131.31 25.268 131.31 26.356V32.5H128.238V26.068C128.238 25.044 128.038 24.26 127.638 23.716C127.238 23.172 126.622 22.9 125.79 22.9C124.974 22.9 124.31 23.204 123.798 23.812C123.302 24.42 123.054 25.268 123.054 26.356V32.5H119.982ZM148.242 32.788C147.042 32.788 145.978 32.532 145.05 32.02C144.122 31.508 143.394 30.788 142.866 29.86C142.338 28.932 142.074 27.86 142.074 26.644C142.074 25.412 142.33 24.316 142.842 23.356C143.37 22.396 144.09 21.652 145.002 21.124C145.93 20.58 147.018 20.308 148.266 20.308C149.434 20.308 150.466 20.564 151.362 21.076C152.258 21.588 152.954 22.292 153.45 23.188C153.962 24.068 154.218 25.052 154.218 26.14C154.218 26.316 154.21 26.5 154.194 26.692C154.194 26.884 154.186 27.084 154.17 27.292H145.122C145.186 28.22 145.506 28.948 146.082 29.476C146.674 30.004 147.386 30.268 148.218 30.268C148.842 30.268 149.362 30.132 149.778 29.86C150.21 29.572 150.53 29.204 150.738 28.756H153.858C153.634 29.508 153.258 30.196 152.73 30.82C152.218 31.428 151.578 31.908 150.81 32.26C150.058 32.612 149.202 32.788 148.242 32.788ZM148.266 22.804C147.514 22.804 146.85 23.02 146.274 23.452C145.698 23.868 145.33 24.508 145.17 25.372H151.098C151.05 24.588 150.762 23.964 150.234 23.5C149.706 23.036 149.05 22.804 148.266 22.804ZM160.906 32.788C159.882 32.788 159.042 32.628 158.386 32.308C157.73 31.972 157.242 31.532 156.922 30.988C156.602 30.444 156.442 29.844 156.442 29.188C156.442 28.084 156.874 27.188 157.738 26.5C158.602 25.812 159.898 25.468 161.626 25.468H164.65V25.18C164.65 24.364 164.418 23.764 163.954 23.38C163.49 22.996 162.914 22.804 162.226 22.804C161.602 22.804 161.058 22.956 160.594 23.26C160.13 23.548 159.842 23.98 159.73 24.556H156.73C156.81 23.692 157.098 22.94 157.594 22.3C158.106 21.66 158.762 21.172 159.562 20.836C160.362 20.484 161.258 20.308 162.25 20.308C163.946 20.308 165.282 20.732 166.258 21.58C167.234 22.428 167.722 23.628 167.722 25.18V32.5H165.106L164.818 30.58C164.466 31.22 163.97 31.748 163.33 32.164C162.706 32.58 161.898 32.788 160.906 32.788ZM161.602 30.388C162.482 30.388 163.162 30.1 163.642 29.524C164.138 28.948 164.45 28.236 164.578 27.388H161.962C161.146 27.388 160.562 27.54 160.21 27.844C159.858 28.132 159.682 28.492 159.682 28.924C159.682 29.388 159.858 29.748 160.21 30.004C160.562 30.26 161.026 30.388 161.602 30.388ZM170.654 32.5V15.22H173.726V32.5H170.654ZM176.865 32.5V15.22H179.937V32.5H176.865Z" fill="#FFFFFE"/>
</svg>
